<?xml version="1.0" encoding="UTF-8" standalone="no"?>
<!-- Created with Inkscape (http://www.inkscape.org/) -->

<svg
   width="53.904011mm"
   height="39.976997mm"
   viewBox="0 0 53.904011 39.976997"
   version="1.1"
   id="svg1"
   inkscape:version="1.3 (0e150ed6c4, 2023-07-21)"
   sodipodi:docname="logo.svg"
   xmlns:inkscape="http://www.inkscape.org/namespaces/inkscape"
   xmlns:sodipodi="http://sodipodi.sourceforge.net/DTD/sodipodi-0.dtd"
   xmlns="http://www.w3.org/2000/svg"
   xmlns:svg="http://www.w3.org/2000/svg">
  <sodipodi:namedview
     id="namedview1"
     pagecolor="#ffffff"
     bordercolor="#000000"
     borderopacity="0.25"
     inkscape:showpageshadow="2"
     inkscape:pageopacity="0.0"
     inkscape:pagecheckerboard="0"
     inkscape:deskcolor="#d1d1d1"
     inkscape:document-units="mm"
     inkscape:zoom="1.4218013"
     inkscape:cx="79.476644"
     inkscape:cy="126.59996"
     inkscape:window-width="1920"
     inkscape:window-height="1043"
     inkscape:window-x="0"
     inkscape:window-y="0"
     inkscape:window-maximized="1"
     inkscape:current-layer="layer1" />
  <defs
     id="defs1" />
  <g
     inkscape:label="Layer 1"
     inkscape:groupmode="layer"
     id="layer1"
     transform="translate(-78.052082,-128.5875)">
    <rect
       style="fill:#383a83;stroke-width:6.85001"
       id="rect9"
       width="53.904011"
       height="39.976997"
       x="78.052078"
       y="128.58749"
       ry="0"
       rx="0" />
    <g
       id="text11"
       style="font-size:23.3664px;line-height:0.6;font-family:Unifont;-inkscape-font-specification:Unifont;letter-spacing:-1.26508px;fill:#383a83;stroke-width:6.85001"
       aria-label="text&#10;anim">
      <path
         style="text-align:center;text-anchor:middle;fill:#ffffff;stroke-width:6.85"
         d="m 87.818833,134.26409 v 4.3812 h -2.9208 v 1.4604 h 2.9208 v 7.302 h 1.4604 v 1.4604 h 2.920799 v -1.4604 h -2.920799 v -7.302 h 2.920799 v -1.4604 h -2.920799 v -4.3812 z m 8.957719,2.9208 v 1.4604 h 5.841598 v 2.9208 h -5.841598 v -2.9208 h -1.4604 v 8.7624 h 1.4604 v 1.4604 h 5.841598 v -1.4604 h 1.4604 v -1.4604 h -1.4604 v 1.4604 h -5.841598 v -4.3812 h 7.301998 v -4.3812 h -1.4604 v -1.4604 z m 8.957718,0 v 2.9208 h 1.4604 v 1.4604 h 1.4604 v 2.9208 h -1.4604 v 1.4604 h -1.4604 v 2.9208 h 1.4604 v -2.9208 h 1.4604 v -1.4604 h 2.9208 v 1.4604 h 1.4604 v 2.9208 h 1.4604 v -2.9208 h -1.4604 v -1.4604 h -1.4604 v -2.9208 h 1.4604 v -1.4604 h 1.4604 v -2.9208 h -1.4604 v 2.9208 h -1.4604 v 1.4604 h -2.9208 v -1.4604 h -1.4604 v -2.9208 z m 13.33892,-2.9208 v 4.3812 h -2.9208 v 1.4604 h 2.9208 v 7.302 h 1.4604 v 1.4604 h 2.9208 v -1.4604 h -2.9208 v -7.302 h 2.9208 v -1.4604 h -2.9208 v -4.3812 z"
         id="path1" />
      <path
         style="text-align:center;text-anchor:middle;fill:#ffffff;stroke-width:6.85"
         d="m 85.725893,151.20473 v 1.4604 h -1.4604 v 1.4604 h 1.4604 v -1.4604 h 5.841599 v 2.9208 h -5.841599 v 1.4604 h -1.4604 v 4.3812 h 1.4604 v 1.4604 h 4.381199 v -1.4604 h -4.381199 v -4.3812 h 5.841599 v 2.9208 h -1.4604 v 1.4604 h 1.4604 v 1.4604 h 1.4604 v -10.2228 h -1.4604 v -1.4604 z m 8.957719,0 v 11.6832 h 1.4604 v -8.7624 h 1.4604 v -1.4604 h 4.381198 v 10.2228 h 1.4604 v -10.2228 h -1.4604 v -1.4604 h -4.381198 v 1.4604 h -1.4604 v -1.4604 z m 14.799318,-4.3812 v 2.9208 h 1.4604 v -2.9208 z m -1.4604,4.3812 v 1.4604 h 1.4604 v 8.7624 h -2.9208 v 1.4604 h 7.302 v -1.4604 h -2.9208 v -10.2228 z m 7.49732,0 v 11.6832 h 1.4604 v -10.2228 h 2.9208 v 10.2228 h 1.4604 v -10.2228 h 2.9208 v 10.2228 h 1.4604 v -10.2228 h -1.4604 v -1.4604 h -2.9208 v 1.4604 h -1.4604 v -1.4604 z"
         id="path2" />
    </g>
  </g>
</svg>
